Coordinates
version=1
nRows=10
nColumns=40
inDegrees=yes
endheader
time	pelvis_tilt	pelvis_list	pelvis_rotation	pelvis_tx	pelvis_ty	pelvis_tz	hip_flexion_r	hip_adduction_r	hip_rotation_r	knee_angle_r	knee_angle_r_beta	ankle_angle_r	subtalar_angle_r	mtp_angle_r	hip_flexion_l	hip_adduction_l	hip_rotation_l	knee_angle_l	knee_angle_l_beta	ankle_angle_l	subtalar_angle_l	mtp_angle_l	lumbar_extension	lumbar_bending	lumbar_rotation	arm_flex_r	arm_add_r	arm_rot_r	elbow_flex_r	pro_sup_r	wrist_flex_r	wrist_dev_r	arm_flex_l	arm_add_l	arm_rot_l	elbow_flex_l	pro_sup_l	wrist_flex_l	wrist_dev_l
1760624801.76900005	     11.12819932	      0.38717115	      1.53490620	      0.04871334	      0.96165312	      0.00537673	     80.00000000	     -7.00000000	      0.00000000	     80.00000000	      1.39626340	      0.00000000	      0.00000000	      0.00000000	     80.00000000	     -7.00000000	      0.00000000	     80.00000000	      1.39626340	      0.00000000	      0.00000000	      0.00000000	    -12.51055855	     -0.14178009	      2.18658981	      3.96708754	     -6.05813605	     -0.56613389	     10.89492271	     11.44380385	      4.23520415	      2.91154213	      5.53916892	     -1.78372453	      3.20278626	      2.31896379	      0.78284468	      0.99453297	      3.07092600
1760624801.80299997	     11.08787577	      0.39309850	      1.56362208	      0.04674461	      0.96157060	      0.00502064	     80.00000000	     -7.00000000	      0.00000000	     80.00000000	      1.39626340	      0.00000000	      0.00000000	      0.00000000	     80.00000000	     -7.00000000	      0.00000000	     80.00000000	      1.39626340	      0.00000000	      0.00000000	      0.00000000	    -12.43458582	     -0.14326283	      2.25184202	      3.91012257	     -6.08852235	     -0.85669154	     10.97447720	     11.59594133	      4.20368251	      2.88813891	      5.38709406	     -1.75067126	      3.66543886	      3.44012299	      0.00000000	      0.93048538	      3.12650487
1760624801.86899996	     10.75913265	      0.37075511	      1.56230833	      0.04246707	      0.96066357	      0.00471421	     80.00000000	     -7.00000000	      0.00000000	     80.00000000	      1.39626340	      0.00000000	      0.00000000	      0.00000000	     80.00000000	     -7.00000000	      0.00000000	     80.00000000	      1.39626340	      0.00000000	      0.00000000	      0.00000000	    -11.97621136	     -0.12851256	      2.48324495	      3.78596543	     -6.15322350	     -1.32439672	     12.09532949	     11.87285969	      3.10959290	      2.89662112	      4.99113536	     -1.83438868	      3.11709667	      7.01131610	      0.00000000	      0.78606404	      3.29762972
1760624801.90300012	     10.36712019	      0.35748238	      1.56036826	      0.03780637	      0.95943069	      0.00469226	     80.00000000	     -7.00000000	      0.00000000	     80.00000000	      1.39626340	      0.00000000	      0.00000000	      0.00000000	     80.00000000	     -7.00000000	      0.00000000	     80.00000000	      1.39626340	      0.00000000	      0.00000000	      0.00000000	    -11.45065144	     -0.13228517	      2.76797485	      3.62775927	     -6.19455521	     -1.75922572	     12.86106230	     12.20924979	      2.43741578	      2.92832472	      4.47589788	     -1.91677753	      2.30685653	     11.32395698	      0.00000000	      0.65434721	      3.43919031
1760624801.93600011	     10.10119587	      0.36198267	      1.54700870	      0.03296890	      0.95807858	      0.00480422	     80.00000000	     -7.00000000	      0.00000000	     80.00000000	      1.39626340	      0.00000000	      0.00000000	      0.00000000	     80.00000000	     -7.00000000	      0.00000000	     80.00000000	      1.39626340	      0.00000000	      0.00000000	      0.00000000	    -11.07683811	     -0.16713689	      3.05268365	      3.51716178	     -6.22826694	     -2.10343859	     13.55647056	     12.48085552	      1.74011259	      3.00451732	      4.05807946	     -2.01030055	      1.66380964	     15.46633519	      0.00000000	      0.58793603	      3.74492739
1760624801.97000003	      9.91901236	      0.35868896	      1.56321146	      0.02795196	      0.95668728	      0.00492806	     80.00000000	     -7.00000000	      0.00000000	     80.00000000	      1.39626340	      0.00000000	      0.00000000	      0.00000000	     80.00000000	     -7.00000000	      0.00000000	     80.00000000	      1.39626340	      0.00000000	      0.00000000	      0.00000000	    -10.70825313	     -0.19850884	      3.36855305	      3.30082536	     -6.25966711	     -2.55574169	     14.71324503	     12.64606124	      0.64450212	      3.06871130	      3.68040627	     -2.11211237	      1.21022925	     20.05485397	      0.00000000	      0.50831170	      4.14311920
1760624802.00300002	      9.58789285	      0.33639639	      1.59422440	      0.02024249	      0.95402619	      0.00444566	     80.00000000	     -7.00000000	      0.00000000	     80.00000000	      1.39626340	      0.00000000	      0.00000000	      0.00000000	     80.00000000	     -7.00000000	      0.00000000	     80.00000000	      1.39626340	      0.00000000	      0.00000000	      0.00000000	    -10.23736416	     -0.26259033	      3.79692025	      3.09822586	     -6.23113029	     -3.09041380	     16.27482866	     12.87662743	     -0.83526618	      3.11647971	      3.39267176	     -2.23870321	      0.85009059	     26.81309508	      0.00000000	      0.36605979	      4.59544510
1760624802.03699994	      9.24256920	      0.30422722	      1.30374035	      0.01384583	      0.95155008	      0.00430043	     80.00000000	     -7.00000000	      0.00000000	     80.00000000	      1.39626340	      0.00000000	      0.00000000	      0.00000000	     80.00000000	     -7.00000000	      0.00000000	     80.00000000	      1.39626340	      0.00000000	      0.00000000	      0.00000000	     -9.75958259	     -0.33703113	      4.40144056	      2.94213526	     -6.22796244	     -3.39436034	     17.51254361	     13.01953136	     -2.03898257	      3.18853663	      3.15512532	     -2.27542059	      0.76772339	     32.39347427	      0.00000000	      0.31950513	      5.00837062
1760624802.06999993	      9.28054009	      0.35596885	      1.31868761	      0.00772479	      0.94926628	      0.00319667	     80.00000000	     -7.00000000	      0.00000000	     80.00000000	      1.39626340	      0.00000000	      0.00000000	      0.00000000	     80.00000000	     -7.00000000	      0.00000000	     80.00000000	      1.39626340	      0.00000000	      0.00000000	      0.00000000	     -9.63150461	     -0.47306196	      4.59354108	      2.76991082	     -6.21156321	     -3.66474589	     18.18768478	     13.15214718	     -2.68841247	      3.27747191	      2.87640978	     -2.37287529	      0.68406598	     38.43650114	      0.00000000	      0.26026208	      5.57480588
1760624802.10400009	      8.91407820	      0.37473924	      1.34567266	      0.00093812	      0.94508168	      0.00195107	     80.00000000	     -7.00000000	      0.00000000	     80.00000000	      1.39626340	      0.00000000	      0.00000000	      0.00000000	     80.00000000	     -7.00000000	      0.00000000	     80.00000000	      1.39626340	      0.00000000	      0.00000000	      0.00000000	     -8.96482002	     -0.68390889	      4.84378458	      2.49704978	     -6.10409582	     -3.99053718	     19.35562030	     13.16613378	     -3.88497356	      3.37588940	      2.35783947	     -2.50576489	      0.72777257	     47.16504455	      0.00000000	      0.11941705	      6.49167391
